<?xml version="1.0" encoding="UTF-8" standalone="no"?>
<svg
   xmlns:dc="http://purl.org/dc/elements/1.1/"
   xmlns:cc="http://creativecommons.org/ns#"
   xmlns:rdf="http://www.w3.org/1999/02/22-rdf-syntax-ns#"
   xmlns:svg="http://www.w3.org/2000/svg"
   xmlns="http://www.w3.org/2000/svg"
   xmlns:sodipodi="http://sodipodi.sourceforge.net/DTD/sodipodi-0.dtd"
   xmlns:inkscape="http://www.inkscape.org/namespaces/inkscape"
   version="1.1"
   id="Layer_1"
   x="0px"
   y="0px"
   viewBox="0 0 512 400"
   xml:space="preserve"
   sodipodi:docname="university.svg"
   width="512"
   height="400"
   inkscape:version="1.0.1 (3bc2e813f5, 2020-09-07)"><metadata
   id="metadata237"><rdf:RDF><cc:Work
       rdf:about=""><dc:format>image/svg+xml</dc:format><dc:type
         rdf:resource="http://purl.org/dc/dcmitype/StillImage" /><dc:title></dc:title></cc:Work></rdf:RDF></metadata><defs
   id="defs235" /><sodipodi:namedview
   pagecolor="#ffffff"
   bordercolor="#666666"
   borderopacity="1"
   objecttolerance="10"
   gridtolerance="10"
   guidetolerance="10"
   inkscape:pageopacity="0"
   inkscape:pageshadow="2"
   inkscape:window-width="1858"
   inkscape:window-height="1057"
   id="namedview233"
   showgrid="false"
   inkscape:zoom="1.7382812"
   inkscape:cx="256"
   inkscape:cy="200.96479"
   inkscape:window-x="54"
   inkscape:window-y="-8"
   inkscape:window-maximized="1"
   inkscape:current-layer="Layer_1" />
<g
   id="g200">
	<g
   id="g4">
		<path
   style="fill:#5f8dd3"
   d="m 304.945,144 6.211,-12.422 c 1.242,-2.477 1.109,-5.422 -0.352,-7.781 C 309.344,121.437 306.773,120 304,120 h -48 c -4.422,0 -8,3.578 -8,8 v 32 c 0,4.422 3.578,8 8,8 h 48 c 2.773,0 5.344,-1.438 6.805,-3.797 1.461,-2.359 1.594,-5.305 0.352,-7.781 z"
   id="path2" />
	</g>
	<g
   id="g10">
		<g
   id="g8">
			<path
   style="fill:#5c546a"
   d="m 256,192 c -4.422,0 -8,-3.578 -8,-8 v -64 c 0,-4.422 3.578,-8 8,-8 4.422,0 8,3.578 8,8 v 64 c 0,4.422 -3.578,8 -8,8 z"
   id="path6" />
		</g>
	</g>
	<g
   id="g14">
		<rect
   x="360"
   y="272"
   style="fill:#868491"
   width="128"
   height="112"
   id="rect12" />
	</g>
	<g
   id="g18">
		<rect
   x="24"
   y="272"
   style="fill:#868491"
   width="128"
   height="112"
   id="rect16" />
	</g>
	<g
   id="g24">
		<g
   id="g22">
			<path
   style="fill:#b4b6bc"
   d="m 344,280 h 144 c 4.422,0 8,-3.578 8,-8 0,-4.422 -3.578,-8 -8,-8 H 344 c -4.422,0 -8,3.578 -8,8 0,4.422 3.578,8 8,8 z"
   id="path20" />
		</g>
	</g>
	<g
   id="g30">
		<g
   id="g28">
			<path
   style="fill:#b4b6bc"
   d="M 168,280 H 24 c -4.422,0 -8,-3.578 -8,-8 0,-4.422 3.578,-8 8,-8 h 144 c 4.422,0 8,3.578 8,8 0,4.422 -3.578,8 -8,8 z"
   id="path26" />
		</g>
	</g>
	<g
   id="g80">
		<g
   id="g36">
			<g
   id="g34">
				<path
   style="fill:#5c546a"
   d="m 384,368 c 4.422,0 8,-3.578 8,-8 v -8 c 0,-4.422 -3.578,-8 -8,-8 -4.422,0 -8,3.578 -8,8 v 8 c 0,4.422 3.578,8 8,8 z"
   id="path32" />
			</g>
		</g>
		<g
   id="g42">
			<g
   id="g40">
				<path
   style="fill:#5c546a"
   d="m 408,368 c 4.422,0 8,-3.578 8,-8 v -8 c 0,-4.422 -3.578,-8 -8,-8 -4.422,0 -8,3.578 -8,8 v 8 c 0,4.422 3.578,8 8,8 z"
   id="path38" />
			</g>
		</g>
		<g
   id="g48">
			<g
   id="g46">
				<path
   style="fill:#5c546a"
   d="m 432,368 c 4.422,0 8,-3.578 8,-8 v -8 c 0,-4.422 -3.578,-8 -8,-8 -4.422,0 -8,3.578 -8,8 v 8 c 0,4.422 3.578,8 8,8 z"
   id="path44" />
			</g>
		</g>
		<g
   id="g54">
			<g
   id="g52">
				<path
   style="fill:#5c546a"
   d="m 456,368 c 4.422,0 8,-3.578 8,-8 v -8 c 0,-4.422 -3.578,-8 -8,-8 -4.422,0 -8,3.578 -8,8 v 8 c 0,4.422 3.578,8 8,8 z"
   id="path50" />
			</g>
		</g>
		<g
   id="g60">
			<g
   id="g58">
				<path
   style="fill:#5c546a"
   d="m 384,336 c 4.422,0 8,-3.578 8,-8 v -24 c 0,-4.422 -3.578,-8 -8,-8 -4.422,0 -8,3.578 -8,8 v 24 c 0,4.422 3.578,8 8,8 z"
   id="path56" />
			</g>
		</g>
		<g
   id="g66">
			<g
   id="g64">
				<path
   style="fill:#5c546a"
   d="m 408,336 c 4.422,0 8,-3.578 8,-8 v -24 c 0,-4.422 -3.578,-8 -8,-8 -4.422,0 -8,3.578 -8,8 v 24 c 0,4.422 3.578,8 8,8 z"
   id="path62" />
			</g>
		</g>
		<g
   id="g72">
			<g
   id="g70">
				<path
   style="fill:#5c546a"
   d="m 432,336 c 4.422,0 8,-3.578 8,-8 v -24 c 0,-4.422 -3.578,-8 -8,-8 -4.422,0 -8,3.578 -8,8 v 24 c 0,4.422 3.578,8 8,8 z"
   id="path68" />
			</g>
		</g>
		<g
   id="g78">
			<g
   id="g76">
				<path
   style="fill:#5c546a"
   d="m 456,336 c 4.422,0 8,-3.578 8,-8 v -24 c 0,-4.422 -3.578,-8 -8,-8 -4.422,0 -8,3.578 -8,8 v 24 c 0,4.422 3.578,8 8,8 z"
   id="path74" />
			</g>
		</g>
	</g>
	<g
   id="g84">
		<polygon
   style="fill:#b4b6bc"
   points="360,244.266 256,188.804 152,244.266 "
   id="polygon82" />
	</g>
	<g
   id="g88">
		<rect
   x="159.78101"
   y="248"
   style="fill:#868491"
   width="192"
   height="144"
   id="rect86" />
	</g>
	<g
   id="g94">
		<g
   id="g92">
			<path
   style="fill:#b4b6bc"
   d="m 256,400 c -4.422,0 -8,-3.578 -8,-8 V 248 c 0,-4.422 3.578,-8 8,-8 4.422,0 8,3.578 8,8 v 144 c 0,4.422 -3.578,8 -8,8 z"
   id="path90" />
		</g>
	</g>
	<g
   id="g100">
		<g
   id="g98">
			<path
   style="fill:#b4b6bc"
   d="m 224,400 c -4.422,0 -8,-3.578 -8,-8 V 248 c 0,-4.422 3.578,-8 8,-8 4.422,0 8,3.578 8,8 v 144 c 0,4.422 -3.578,8 -8,8 z"
   id="path96" />
		</g>
	</g>
	<g
   id="g106">
		<g
   id="g104">
			<path
   style="fill:#b4b6bc"
   d="m 192,400 c -4.422,0 -8,-3.578 -8,-8 V 248 c 0,-4.422 3.578,-8 8,-8 4.422,0 8,3.578 8,8 v 144 c 0,4.422 -3.578,8 -8,8 z"
   id="path102" />
		</g>
	</g>
	<g
   id="g112">
		<g
   id="g110">
			<path
   style="fill:#b4b6bc"
   d="m 320,400 c -4.422,0 -8,-3.578 -8,-8 V 248 c 0,-4.422 3.578,-8 8,-8 4.422,0 8,3.578 8,8 v 144 c 0,4.422 -3.578,8 -8,8 z"
   id="path108" />
		</g>
	</g>
	<g
   id="g118">
		<g
   id="g116">
			<path
   style="fill:#b4b6bc"
   d="m 288,400 c -4.422,0 -8,-3.578 -8,-8 V 248 c 0,-4.422 3.578,-8 8,-8 4.422,0 8,3.578 8,8 v 144 c 0,4.422 -3.578,8 -8,8 z"
   id="path114" />
		</g>
	</g>
	<g
   id="g124">
		<g
   id="g122">
			<path
   style="fill:#b4b6bc"
   d="m 352,400 c -4.422,0 -8,-3.578 -8,-8 V 248 c 0,-4.422 3.578,-8 8,-8 4.422,0 8,3.578 8,8 v 144 c 0,4.422 -3.578,8 -8,8 z"
   id="path120" />
		</g>
	</g>
	<g
   id="g130">
		<g
   id="g128">
			<path
   style="fill:#b4b6bc"
   d="m 160,400 c -4.422,0 -8,-3.578 -8,-8 V 248 c 0,-4.422 3.578,-8 8,-8 4.422,0 8,3.578 8,8 v 144 c 0,4.422 -3.578,8 -8,8 z"
   id="path126" />
		</g>
	</g>
	<g
   id="g136">
		<g
   id="g134">
			<path
   style="fill:#868491"
   d="M 376,256 H 136 c -3.672,0 -6.867,-2.5 -7.758,-6.063 -0.891,-3.555 0.758,-7.266 3.992,-9 l 120,-64 c 2.359,-1.25 5.172,-1.25 7.531,0 l 120,64 c 3.234,1.734 4.883,5.445 3.992,9 C 382.867,253.5 379.672,256 376,256 Z M 168,240 h 176 l -88,-46.93 z"
   id="path132" />
		</g>
	</g>
	<g
   id="g186">
		<g
   id="g142">
			<g
   id="g140">
				<path
   style="fill:#5c546a"
   d="m 128,368 c -4.422,0 -8,-3.578 -8,-8 v -8 c 0,-4.422 3.578,-8 8,-8 4.422,0 8,3.578 8,8 v 8 c 0,4.422 -3.578,8 -8,8 z"
   id="path138" />
			</g>
		</g>
		<g
   id="g148">
			<g
   id="g146">
				<path
   style="fill:#5c546a"
   d="m 104,368 c -4.422,0 -8,-3.578 -8,-8 v -8 c 0,-4.422 3.578,-8 8,-8 4.422,0 8,3.578 8,8 v 8 c 0,4.422 -3.578,8 -8,8 z"
   id="path144" />
			</g>
		</g>
		<g
   id="g154">
			<g
   id="g152">
				<path
   style="fill:#5c546a"
   d="m 80,368 c -4.422,0 -8,-3.578 -8,-8 v -8 c 0,-4.422 3.578,-8 8,-8 4.422,0 8,3.578 8,8 v 8 c 0,4.422 -3.578,8 -8,8 z"
   id="path150" />
			</g>
		</g>
		<g
   id="g160">
			<g
   id="g158">
				<path
   style="fill:#5c546a"
   d="m 56,368 c -4.422,0 -8,-3.578 -8,-8 v -8 c 0,-4.422 3.578,-8 8,-8 4.422,0 8,3.578 8,8 v 8 c 0,4.422 -3.578,8 -8,8 z"
   id="path156" />
			</g>
		</g>
		<g
   id="g166">
			<g
   id="g164">
				<path
   style="fill:#5c546a"
   d="m 128,336 c -4.422,0 -8,-3.578 -8,-8 v -24 c 0,-4.422 3.578,-8 8,-8 4.422,0 8,3.578 8,8 v 24 c 0,4.422 -3.578,8 -8,8 z"
   id="path162" />
			</g>
		</g>
		<g
   id="g172">
			<g
   id="g170">
				<path
   style="fill:#5c546a"
   d="m 104,336 c -4.422,0 -8,-3.578 -8,-8 v -24 c 0,-4.422 3.578,-8 8,-8 4.422,0 8,3.578 8,8 v 24 c 0,4.422 -3.578,8 -8,8 z"
   id="path168" />
			</g>
		</g>
		<g
   id="g178">
			<g
   id="g176">
				<path
   style="fill:#5c546a"
   d="m 80,336 c -4.422,0 -8,-3.578 -8,-8 v -24 c 0,-4.422 3.578,-8 8,-8 4.422,0 8,3.578 8,8 v 24 c 0,4.422 -3.578,8 -8,8 z"
   id="path174" />
			</g>
		</g>
		<g
   id="g184">
			<g
   id="g182">
				<path
   style="fill:#5c546a"
   d="m 56,336 c -4.422,0 -8,-3.578 -8,-8 v -24 c 0,-4.422 3.578,-8 8,-8 4.422,0 8,3.578 8,8 v 24 c 0,4.422 -3.578,8 -8,8 z"
   id="path180" />
			</g>
		</g>
	</g>
	<g
   id="g192">
		<g
   id="g190">
			<path
   style="fill:#868491"
   d="m 271.781,232 h -31.562 c -4.422,0 -8,-3.578 -8,-8 0,-4.422 3.578,-8 8,-8 h 31.562 c 4.422,0 8,3.578 8,8 0,4.422 -3.578,8 -8,8 z"
   id="path188" />
		</g>
	</g>
	<g
   id="g198">
		<g
   id="g196">
			<path
   style="fill:#5c546a"
   d="M 504,400 H 8 c -4.422,0 -8,-3.578 -8,-8 0,-4.422 3.578,-8 8,-8 h 496 c 4.422,0 8,3.578 8,8 0,4.422 -3.578,8 -8,8 z"
   id="path194" />
		</g>
	</g>
</g>
<g
   id="g202">
</g>
<g
   id="g204">
</g>
<g
   id="g206">
</g>
<g
   id="g208">
</g>
<g
   id="g210">
</g>
<g
   id="g212">
</g>
<g
   id="g214">
</g>
<g
   id="g216">
</g>
<g
   id="g218">
</g>
<g
   id="g220">
</g>
<g
   id="g222">
</g>
<g
   id="g224">
</g>
<g
   id="g226">
</g>
<g
   id="g228">
</g>
<g
   id="g230">
</g>
</svg>
